<?xml version="1.0" encoding="UTF-8"?>
<svg width="104px" height="104px" viewBox="0 0 104 104" version="1.1" xmlns="http://www.w3.org/2000/svg" xmlns:xlink="http://www.w3.org/1999/xlink">
    <!-- Generator: Sketch 51.1 (57501) - http://www.bohemiancoding.com/sketch -->
    <title>Group</title>
    <desc>Created with Sketch.</desc>
    <defs></defs>
    <g id="Page-1" stroke="none" stroke-width="1" fill="none" fill-rule="evenodd">
        <g id="Group" transform="translate(3.000000, 3.000000)" fill-rule="nonzero">
            <path d="M65,68 L33,68 C29.6862915,68 27,65.3137085 27,62 L27,55 C27,53.8954305 27.8954305,53 29,53 C30.1045695,53 31,53.8954305 31,55 L31,62 C31,63.1045695 31.8954305,64 33,64 L65,64 C66.1045695,64 67,63.1045695 67,62 L67,55 C67,53.8954305 67.8954305,53 69,53 C70.1045695,53 71,53.8954305 71,55 L71,62 C71,65.3137085 68.3137085,68 65,68 Z" id="Shape" fill="#E5E5E5"></path>
            <path d="M49,57.69 C48.4689827,57.6851228 47.9617054,57.4692602 47.59,57.09 L37.84,47.09 C37.3006109,46.5873685 37.0814981,45.8287438 37.26983,45.1159254 C37.4581619,44.403107 38.0233918,43.8517114 38.7406573,43.6810974 C39.4579228,43.5104834 40.2108862,43.7483238 40.7,44.3 L49,52.86 L57.82,44.26 C58.6187937,43.5517928 59.8329836,43.595782 60.5784346,44.3599362 C61.3238857,45.1240903 61.3377799,46.3389973 60.61,47.12 L50.36,57.12 C49.9958155,57.4762884 49.5093868,57.6801593 49,57.69 Z" id="Shape" fill="#E5E5E5"></path>
            <path d="M49,57.68 C47.8954305,57.68 47,56.7845695 47,55.68 L47,26 C47,24.8954305 47.8954305,24 49,24 C50.1045695,24 51,24.8954305 51,26 L51,55.68 C51,56.7845695 50.1045695,57.68 49,57.68 Z" id="Shape" fill="#E5E5E5"></path>
            <circle id="Oval" stroke="#E5E5E5" stroke-width="5" cx="49" cy="49" r="49"></circle>
            <circle id="Oval" stroke="#E5E5E5" cx="49.5" cy="49.5" r="42.5"></circle>
        </g>
    </g>
</svg>