<?xml version="1.0" encoding="utf-8"?>
<!-- Generator: Adobe Illustrator 18.0.0, SVG Export Plug-In . SVG Version: 6.00 Build 0)  -->
<!DOCTYPE svg PUBLIC "-//W3C//DTD SVG 1.1//EN" "http://www.w3.org/Graphics/SVG/1.1/DTD/svg11.dtd">
<svg version="1.1" id="Layer_1" xmlns="http://www.w3.org/2000/svg" xmlns:xlink="http://www.w3.org/1999/xlink" x="0px" y="0px"
	 viewBox="0 0 1215.4 136.9" enable-background="new 0 0 1215.4 136.9" xml:space="preserve">
<g>
	<path d="M1063.4,136.9c-36.5,0-72.9,0-109.4,0c-20.5,0-37.4-13.7-41.5-33.7c-0.6-2.8-0.8-5.7-0.8-8.5c-0.1-17.4-0.1-34.8,0-52.2
		c0.1-21.4,14.6-38.4,35.6-41.9c2.1-0.4,4.3-0.5,6.4-0.5c73,0,146.1,0,219.1,0c21.4,0,38.6,14.4,42.1,35.6c0.4,2.2,0.5,4.5,0.5,6.8
		c0,17.4,0,34.8,0,52.2c0,21.2-14.8,38.5-35.7,41.9c-2.2,0.4-4.5,0.5-6.8,0.5C1136.4,136.9,1099.9,136.9,1063.4,136.9z M1026.9,56.2
		c-1,0-1.7,0-2.5,0c-14.7,0-29.4,0-44.1,0.1c-7,0-14.1,0.4-20.9,2.4c-9.3,2.7-16.3,7.8-18.7,17.7c-1.4,5.6-1.4,11.1,0,16.8
		c2.2,9.1,7.6,15,16.3,18.1c6.8,2.5,13.9,3.3,21,3.5c11.4,0.3,22.8,0.1,34.1,0c2.1,0,4.2-0.2,6.2-0.5c7.6-1.2,13.4-4.8,15.7-12.5
		c1-3.4,1.8-7,1.9-10.5c0.2-10.1,0.1-20.1-0.3-30.2c-0.3-6.4-1.4-12.8-4.1-18.7c-5.3-11.4-14.7-17.5-26.5-20.2
		c-10.5-2.5-21.2-2.8-32-1.8c-7.3,0.7-14.4,2.5-21.1,5.7c-1.2,0.6-2.6,1.8-2.8,2.9c-0.5,1.9-0.1,4-0.1,6.5c2.7-1,4.9-1.8,7-2.6
		c12.3-4.9,25-5.7,37.9-4.5c6.3,0.6,12.4,1.9,18,4.8C1021.3,37.9,1025.4,46,1026.9,56.2z M1188.1,35.4c0.1-1.8,0.1-3,0.2-4.2
		c0.2-2.5-0.7-4.2-3.1-5.1c-3.7-1.4-7.4-3-11.3-3.9c-14.1-3.3-28.3-3.1-42.5,0.2c-8.8,2-16.3,6.2-21.9,13.4
		c-5.5,7.1-7.7,15.4-7.8,24.1c-0.3,17.6-0.1,35.3-0.1,52.9c0,0.4,0.1,0.8,0.2,1.1c2.7,0,5.3,0,8,0c0-0.8,0-1.5,0-2.2
		c0-16.3,0-32.6,0-49c0-2.6,0.1-5.1,0.5-7.7c1.8-11.4,7.5-20,18.9-23.5c17.9-5.6,35.7-4.8,53.2,2C1184.2,34.2,1186,34.7,1188.1,35.4
		z M1074.8,114.7c0-31.3,0-62.5,0-93.6c-2.7,0-5.2,0-7.9,0c0,31.2,0,62.4,0,93.6C1069.6,114.7,1072.1,114.7,1074.8,114.7z"/>
	<path d="M739.9,52c0-3.1,0-6.2,0-9.4c-22.5,0-44.7,0-67.1,0c0,18.2,0,36.4,0,54.6c22.3,0,44.6,0,66.9,0c0-6.3,0-12.5,0-18.9
		c-11.7,0-23.3,0-35.1,0c0-5.1,0-10.1,0-15.2c18.8,0,37.6,0,56.4,0c0.1,0.3,0.1,0.5,0.1,0.8c0,11.2-0.1,22.4-0.2,33.6
		c0,1.8-0.5,3.5-0.8,5.3c-1.2,5.5-4.6,8.9-10.1,10c-3.3,0.7-6.7,1.2-10.1,1.2c-23,0.1-46,0.1-69,0c-2.6,0-5.2-0.4-7.8-0.8
		c-7.1-1.3-10.7-5-11.8-12.2c-0.4-2.8-0.7-5.7-0.7-8.5c-0.1-14.8-0.1-29.7,0-44.5c0-2.7,0.2-5.4,0.6-8c1.4-8.2,5-11.7,13.3-12.8
		c3.6-0.5,7.4-0.7,11-0.7c20.5-0.1,41-0.1,61.5,0c4,0,8.1,0.4,12.1,1.1c6.3,1,10.2,4.9,11.3,11.2c0.5,2.9,0.6,5.8,0.7,8.7
		c0,0.4-0.6,1.2-1,1.3c-6.5,1.2-13,2.2-19.5,3.3C740.5,52.1,740.3,52.1,739.9,52z"/>
	<path d="M103.7,47.7c-6.8,1.5-13.1,2.9-19.7,4.4c0-3.4,0-6.6,0-9.8c-20.2,0-40.2,0-60.3,0c0,6,0,12,0,18.2c0.8,0,1.5,0,2.2,0
		c17.9,0,35.7-0.1,53.6,0c4.1,0,8.3,0.3,12.4,1c7.5,1.3,11,5.1,12.1,12.5c0.4,2.9,0.6,5.8,0.6,8.7c0,5.1,0,10.1-0.2,15.2
		c-0.5,9.8-5.1,14.6-14.9,15.7c-2.3,0.3-4.6,0.5-6.9,0.5c-21.1,0-42.2,0-63.3-0.1c-2.8,0-5.7-0.7-8.4-1.4c-5-1.2-8.2-4.5-9.2-9.4
		c-0.8-4-1.1-8.1-1.6-12.3c6.9-1.3,13.2-2.6,19.9-3.9c0,3.6,0,6.8,0,10.2c21.8,0,43.4,0,65.1,0c0-6.4,0-12.7,0-19.3
		c-0.7,0-1.4,0-2.1,0c-18.3,0-36.7,0.1-55,0c-3.7,0-7.5-0.4-11.2-1c-6.6-1-10.6-4.8-11.7-11.5c-1.3-8.5-1.4-17.1-0.1-25.6
		c1.2-8.1,5.1-11.4,13.3-12.5c3.4-0.4,6.8-0.7,10.1-0.7c17.1-0.1,34.2-0.1,51.3,0c4.4,0,8.9,0.7,13.2,1.6c5.2,1.1,8.4,4.6,9.5,9.8
		C103.1,41,103.3,44.3,103.7,47.7z"/>
	<path d="M539.9,114c-7.3,0-14.4,0-21.6,0c0-29.2,0-58.3,0-87.6c0.7,0,1.3,0,1.9,0c25.6,0,51.1-0.1,76.7,0.1c3.9,0,8,0.5,11.8,1.4
		c6.2,1.5,9.6,5.9,10,12.2c0.4,5.5,0.3,11.1,0.3,16.6c0,3.3,0.1,6.6-0.2,9.8c-0.5,7.8-4.6,12.5-12.3,13.8c-4.1,0.7-8.4,0.7-12.6,0.9
		c-2.3,0.1-4.6,0-6.9,0c-0.1,0.1-0.1,0.3-0.2,0.4c14,10.7,27.9,21.5,42.3,32.5c-1.4,0-2.3,0-3.2,0c-9,0-18,0-27,0
		c-0.9,0-1.9-0.4-2.5-0.9c-11.5-10.1-23-20.2-34.5-30.3c-1.3-1.2-2.6-1.7-4.5-1.7c-5.2,0.1-10.4,0-15.5,0c-0.6,0-1.3,0-2.1,0
		C539.9,92.2,539.9,103,539.9,114z M539.9,65.8c0.5,0,0.9,0.1,1.2,0.1c16,0,32,0,48.1,0c1.4,0,2.9-0.2,4.2-0.5
		c2.8-0.6,4.2-2.1,4.3-4.9c0.1-4.3,0.1-8.7,0-13c-0.1-2.7-1.5-4.3-4.2-4.9c-1.5-0.3-3.1-0.5-4.6-0.5c-15.9-0.1-31.8-0.1-47.7-0.1
		c-0.5,0-0.9,0.1-1.4,0.2C539.9,50,539.9,57.8,539.9,65.8z"/>
	<path d="M357.3,26.6c6.3,0,12.7,0,19.5,0c0,0.7,0,1.3,0,1.9c0,27.8,0,55.6,0,83.4c0,1.8-0.5,2.3-2.3,2.3c-3.8-0.1-7.6,0-11.4-0.1
		c-0.7,0-1.6-0.2-2.1-0.6c-23.1-18.3-46.3-36.5-69.4-54.9c-1.8-1.4-3.4-3.1-5.1-4.6c0,20,0,39.9,0,60c-6.3,0-12.7,0-19.3,0
		c0-29.1,0-58.2,0-87.5c0.5,0,1-0.1,1.5-0.1c3.2,0,6.3,0.2,9.5-0.1c2.7-0.2,4.8,0.7,6.9,2.4c21,16.6,42,33.1,63,49.6
		c2.9,2.3,5.6,4.8,8.3,7.3c0.3,0.3,0.6,0.5,0.8,0.7C357.3,66.5,357.3,46.6,357.3,26.6z"/>
	<path d="M421.3,97.3c24.8,0,49.4,0,74.1,0c0,5.6,0,11.1,0,16.7c-32,0-64,0-96.1,0c0-29.1,0-58.2,0-87.4c31.7,0,63.4,0,95.2,0
		c0,4.9,0,9.9,0,15.1c-24.4,0-48.8,0-73.3,0c0,6.4,0,12.6,0,19.1c14.2,0,28.4,0,42.7,0c0,5.2,0,10.2,0,15.3c-14.2,0-28.4,0-42.7,0
		C421.3,83.1,421.3,90.1,421.3,97.3z"/>
	<path d="M125.9,26.5c9.7,0,19,0,28.3,0.1c0.7,0,1.6,0.7,2.2,1.2c9,9.4,18,18.9,27,28.3c1.2,1.2,2.5,2.3,3.9,3.6
		c3-3.2,6.1-6.4,9.3-9.7c7.2-7.5,14.3-15,21.5-22.5c0.5-0.5,1.4-1,2.1-1c8.1-0.1,16.2,0,24.8,0c-0.7,0.8-1.2,1.3-1.7,1.8
		c-15,14.9-30,29.8-45.1,44.7c-1.1,1.1-1.6,2.2-1.6,3.7c0.1,11.7,0,23.4,0,35c0,0.7,0,1.4,0,2.3c-7.4,0-14.7,0-22.2,0
		c0-0.7,0-1.4,0-2.1c0-11.7,0-23.4,0-35c0-1.3-0.4-2.2-1.3-3.1c-15.3-15.2-30.5-30.5-45.8-45.7C127,27.6,126.6,27.2,125.9,26.5z"/>
	<path d="M782.1,26.5c0.6,0,1.1,0,1.7,0c8.3,0,16.7,0,25,0c1.5,0,2.5,0.4,3.6,1.5c9.8,10.4,19.7,20.7,29.5,31.1
		c0.2,0.3,0.4,0.6,0.7,1c1.1-1.1,2-2,2.9-3c9.3-9.8,18.7-19.5,28-29.4c0.9-1,1.8-1.3,3.1-1.3c7.9,0.1,15.7,0,24,0
		c-0.7,0.7-1.1,1.2-1.5,1.6c-15,14.9-30.1,29.9-45.2,44.8c-1.2,1.2-1.7,2.3-1.7,4c0.1,11.6,0,23.2,0,34.8c0,0.7,0,1.4,0,2.3
		c-7.4,0-14.7,0-22.2,0c0-0.7,0-1.4,0-2.1c0-11.7,0-23.3,0-35c0-1.3-0.3-2.2-1.3-3.1c-15.2-15.2-30.4-30.4-45.7-45.6
		c-0.4-0.4-1.1-0.6-1.7-0.9C781.7,27,781.9,26.7,782.1,26.5z"/>
	<path d="M1027.5,64.4c0,10.8,0.2,21.4-0.1,32c-0.2,5.3-3.4,8.5-8.6,9.6c-2.3,0.5-4.7,0.8-7.1,0.8c-11.7,0-23.4-0.2-35-0.3
		c-5.8,0-11.5-1.1-17-2.9c-6.9-2.2-10.7-7-11.5-14c-0.4-3.3-0.5-6.8,0.1-10.1c1.3-7.2,6.1-11.3,13-13.1c6.6-1.7,13.3-2.2,20-2.1
		c15,0.1,29.9,0,44.9,0C1026.6,64.3,1027.1,64.4,1027.5,64.4z"/>
</g>
</svg>
